<svg width="1242" height="401" viewBox="0 0 1242 401" fill="none" xmlns="http://www.w3.org/2000/svg">
<path fill-rule="evenodd" clip-rule="evenodd" d="M54.1256 401H88.4042L108.426 306.664L74.6194 275.348L54.1256 401ZM63.3258 264.886L41.1256 401H0V206.223L63.3258 264.886ZM76.9733 260.915L111.409 292.606L145.792 130.603L100.629 115.876L76.9733 260.915ZM88.2856 111.851L65.6699 250.513L0 190.08V83.0621L88.2856 111.851ZM104.355 93.0311L150.568 108.101L173.511 0H119.528L104.355 93.0311ZM106.528 0L92.0116 89.006L0 59.0022V0H106.528ZM400 401H336.753L293.996 178.931L400 213.497V401ZM400 189.437L289.053 153.259L259.544 0H400V189.437ZM259.929 143.762L231.581 0H198.494L173.679 115.637L259.929 143.762ZM210.26 401L128.663 325.411L112.442 401H210.26ZM131.696 311.275L229.196 401H310.651L264.999 169.475L168.854 138.123L131.696 311.275Z" fill="#051B26"/>
<path d="M533.14 53.1V36.18L485.44 36.72L487.06 84.24H533.14V91.98L487.06 94.32L485.44 143.1H534.94L539.62 126.18C539.62 125.34 540.16 124.74 541.24 124.38C542.32 124.02 543.46 123.84 544.66 123.84C545.98 123.72 546.82 123.66 547.18 123.66L545.74 150.84C545.62 151.8 545.14 152.4 544.3 152.64C543.58 152.88 542.32 153 540.52 153L478.6 151.56L459.7 153C458.38 153 457.6 152.28 457.36 150.84C457.12 149.28 457 148.2 457 147.6L472.12 143.64V36.36L457 32.4C457 31.8 457.12 30.78 457.36 29.34C457.6 27.78 458.38 27 459.7 27C459.7 27 460.06 27 460.78 27C461.5 27 463.18 27.06 465.82 27.18C468.46 27.3 472.6 27.48 478.24 27.72L539.44 27C541.12 27 542.44 27.06 543.4 27.18C544.48 27.3 545.08 27.84 545.2 28.8L540.88 55.62C540.4 55.62 539.5 55.62 538.18 55.62C536.98 55.5 535.84 55.26 534.76 54.9C533.68 54.54 533.14 53.94 533.14 53.1ZM625.765 131.04C625.765 138.72 622.705 144.54 616.585 148.5C610.465 152.46 602.785 154.44 593.545 154.44C584.305 154.44 574.525 152.4 564.205 148.32C564.325 146.88 564.565 144.96 564.925 142.56C565.405 140.04 565.885 137.58 566.365 135.18C566.965 132.66 567.445 130.56 567.805 128.88C568.165 127.08 568.405 126.18 568.525 126.18C569.005 126.18 569.785 126.24 570.865 126.36C571.945 126.36 572.965 126.54 573.925 126.9C574.885 127.26 575.365 127.92 575.365 128.88V141.84C578.125 143.28 581.185 144.36 584.545 145.08C588.025 145.8 591.325 146.16 594.445 146.16C600.685 146.16 605.185 144.84 607.945 142.2C610.825 139.56 612.265 136.38 612.265 132.66C612.265 130.86 611.605 128.76 610.285 126.36C608.965 123.96 606.685 121.86 603.445 120.06L580.405 107.64C575.845 105.12 572.305 102 569.785 98.28C567.385 94.56 566.185 90.84 566.185 87.12C566.185 83.04 567.385 79.26 569.785 75.78C572.185 72.18 575.725 69.24 580.405 66.96C585.085 64.68 590.785 63.54 597.505 63.54C601.345 63.54 605.305 64.02 609.385 64.98C613.585 65.82 617.665 66.9 621.625 68.22L617.845 88.92C617.365 88.92 616.465 88.92 615.145 88.92C613.945 88.8 612.805 88.56 611.725 88.2C610.645 87.72 610.105 87.06 610.105 86.22V74.34C608.305 73.74 606.205 73.2 603.805 72.72C601.405 72.24 599.005 72 596.605 72C593.125 72 589.705 72.6 586.345 73.8C583.105 75 580.465 77.16 578.425 80.28C577.945 81.72 577.705 83.28 577.705 84.96C577.705 90.12 580.825 94.38 587.065 97.74L609.565 109.62C615.085 112.5 619.165 115.86 621.805 119.7C624.445 123.54 625.765 127.32 625.765 131.04ZM725.061 181.62L683.661 154.44C675.381 154.32 667.941 152.58 661.341 149.22C654.741 145.86 649.521 140.82 645.681 134.1C641.961 127.26 640.101 118.74 640.101 108.54C640.101 98.7 642.141 90.48 646.221 83.88C650.421 77.16 656.001 72.12 662.961 68.76C669.921 65.28 677.601 63.54 686.001 63.54C694.161 63.54 701.601 65.16 708.321 68.4C715.041 71.64 720.381 76.5 724.341 82.98C728.421 89.46 730.461 97.62 730.461 107.46C730.461 119.7 727.821 129.54 722.541 136.98C717.381 144.3 710.361 149.34 701.481 152.1L729.921 174.6L725.061 181.62ZM654.141 108.72C654.141 121.44 657.141 130.92 663.141 137.16C669.141 143.4 676.521 146.52 685.281 146.52C694.161 146.52 701.541 143.4 707.421 137.16C713.421 130.92 716.421 121.44 716.421 108.72C716.421 96.48 713.421 87.36 707.421 81.36C701.541 75.24 694.161 72.18 685.281 72.18C682.041 72.18 678.801 72.48 675.561 73.08C672.321 73.56 669.441 74.16 666.921 74.88C663.201 77.76 660.141 82.2 657.741 88.2C655.341 94.2 654.141 101.04 654.141 108.72ZM776.409 64.98C778.089 64.98 779.049 65.76 779.289 67.32C779.649 68.88 779.829 69.96 779.829 70.56L767.409 73.26V125.64C767.409 131.52 769.209 136.32 772.809 140.04C776.529 143.76 782.589 145.62 790.989 145.62C799.389 145.62 805.509 143.58 809.349 139.5C813.309 135.3 815.289 130.62 815.289 125.46V73.26L802.689 70.56C802.689 69.24 802.869 67.98 803.229 66.78C803.709 65.58 804.669 64.98 806.109 64.98L820.509 65.52C824.709 65.28 827.349 65.16 828.429 65.16C829.629 65.04 830.229 64.98 830.229 64.98C832.029 64.98 833.049 65.76 833.289 67.32C833.649 68.76 833.829 69.84 833.829 70.56L825.369 73.26V125.1C825.369 133.86 822.309 140.94 816.189 146.34C810.069 151.74 801.609 154.44 790.809 154.44C779.769 154.44 770.949 152.16 764.349 147.6C757.869 143.04 754.629 135.54 754.629 125.1V73.26L744.909 70.74C744.909 70.14 745.029 69.06 745.269 67.5C745.509 65.82 746.409 64.98 747.969 64.98C747.969 64.98 748.209 64.98 748.689 64.98C749.169 64.98 750.369 65.04 752.289 65.16C754.209 65.16 757.269 65.28 761.469 65.52C767.109 65.28 771.009 65.16 773.169 65.16C775.329 65.04 776.409 64.98 776.409 64.98ZM913.587 153L869.127 151.92L854.187 153C852.627 153 851.667 152.28 851.307 150.84C851.067 149.28 850.947 148.14 850.947 147.42L862.467 144.9V73.08L850.947 70.56C850.947 69.84 851.067 68.76 851.307 67.32C851.667 65.76 852.627 64.98 854.187 64.98C854.187 64.98 855.147 65.04 857.067 65.16C858.987 65.16 863.007 65.28 869.127 65.52L912.687 64.98C914.367 64.98 915.687 65.1 916.647 65.34C917.607 65.46 918.087 66.18 918.087 67.5L914.847 86.58C914.367 86.58 913.527 86.58 912.327 86.58C911.127 86.46 909.987 86.22 908.907 85.86C907.947 85.38 907.467 84.72 907.467 83.88V73.44L874.527 73.8L876.147 103.68H909.447V111.06L875.967 113.04L874.527 144.18H909.087L912.147 133.92C912.507 132.6 913.227 131.76 914.307 131.4C915.387 131.04 917.187 130.86 919.707 130.86L918.627 150.84C918.507 151.8 918.027 152.4 917.187 152.64C916.467 152.88 915.267 153 913.587 153ZM995.563 153L955.963 151.92L941.023 153C939.463 153 938.503 152.28 938.143 150.84C937.903 149.28 937.783 148.14 937.783 147.42L949.303 144.9V73.08L937.783 70.56C937.783 69.84 937.963 68.76 938.323 67.32C938.803 65.76 939.703 64.98 941.023 64.98L955.963 65.52L970.543 64.98C971.863 64.98 972.703 65.58 973.063 66.78C973.423 67.98 973.603 69.18 973.603 70.38L962.083 73.08V144.18H991.063L994.123 133.92C994.483 132.6 995.203 131.76 996.283 131.4C997.363 131.04 999.163 130.86 1001.68 130.86L1000.6 150.84C1000.48 151.8 1000 152.46 999.163 152.82C998.443 153.06 997.243 153.12 995.563 153ZM1027.55 144.9L1039.61 147.42C1039.61 148.26 1039.49 149.4 1039.25 150.84C1039.01 152.28 1038.05 153 1036.37 153C1036.37 153 1036.01 153 1035.29 153C1034.69 153 1033.31 152.94 1031.15 152.82C1028.99 152.7 1025.51 152.58 1020.71 152.46L1008.29 153C1006.25 153 1005.23 151.2 1005.23 147.6L1015.67 144.9L1046.09 64.98H1057.79L1088.57 144.72L1099.01 147.6C1099.01 148.2 1098.89 149.28 1098.65 150.84C1098.41 152.28 1097.51 153 1095.95 153C1095.95 153 1094.93 153 1092.89 153C1090.85 152.88 1087.01 152.7 1081.37 152.46C1075.01 152.7 1070.81 152.88 1068.77 153C1066.73 153 1065.71 153 1065.71 153C1064.15 153 1063.19 152.28 1062.83 150.84C1062.59 149.4 1062.47 148.26 1062.47 147.42L1074.71 144.9L1067.51 124.92L1034.03 126.72L1027.55 144.9ZM1050.77 78.84L1037.09 117.36H1064.63L1050.77 78.84ZM1168.75 131.04C1168.75 138.72 1165.69 144.54 1159.57 148.5C1153.45 152.46 1145.77 154.44 1136.53 154.44C1127.29 154.44 1117.51 152.4 1107.19 148.32C1107.31 146.88 1107.55 144.96 1107.91 142.56C1108.39 140.04 1108.87 137.58 1109.35 135.18C1109.95 132.66 1110.43 130.56 1110.79 128.88C1111.15 127.08 1111.39 126.18 1111.51 126.18C1111.99 126.18 1112.77 126.24 1113.85 126.36C1114.93 126.36 1115.95 126.54 1116.91 126.9C1117.87 127.26 1118.35 127.92 1118.35 128.88V141.84C1121.11 143.28 1124.17 144.36 1127.53 145.08C1131.01 145.8 1134.31 146.16 1137.43 146.16C1143.67 146.16 1148.17 144.84 1150.93 142.2C1153.81 139.56 1155.25 136.38 1155.25 132.66C1155.25 130.86 1154.59 128.76 1153.27 126.36C1151.95 123.96 1149.67 121.86 1146.43 120.06L1123.39 107.64C1118.83 105.12 1115.29 102 1112.77 98.28C1110.37 94.56 1109.17 90.84 1109.17 87.12C1109.17 83.04 1110.37 79.26 1112.77 75.78C1115.17 72.18 1118.71 69.24 1123.39 66.96C1128.07 64.68 1133.77 63.54 1140.49 63.54C1144.33 63.54 1148.29 64.02 1152.37 64.98C1156.57 65.82 1160.65 66.9 1164.61 68.22L1160.83 88.92C1160.35 88.92 1159.45 88.92 1158.13 88.92C1156.93 88.8 1155.79 88.56 1154.71 88.2C1153.63 87.72 1153.09 87.06 1153.09 86.22V74.34C1151.29 73.74 1149.19 73.2 1146.79 72.72C1144.39 72.24 1141.99 72 1139.59 72C1136.11 72 1132.69 72.6 1129.33 73.8C1126.09 75 1123.45 77.16 1121.41 80.28C1120.93 81.72 1120.69 83.28 1120.69 84.96C1120.69 90.12 1123.81 94.38 1130.05 97.74L1152.55 109.62C1158.07 112.5 1162.15 115.86 1164.79 119.7C1167.43 123.54 1168.75 127.32 1168.75 131.04ZM472.12 256.36L457 252.4C457 251.8 457.12 250.78 457.36 249.34C457.6 247.78 458.38 247 459.7 247C459.7 247 460.18 247 461.14 247C462.1 247 464.02 247.06 466.9 247.18C469.78 247.3 474.04 247.48 479.68 247.72L516.4 244.84C527.32 244.84 537.22 247.18 546.1 251.86C554.98 256.42 562.06 263.38 567.34 272.74C572.74 281.98 575.44 293.62 575.44 307.66C575.44 322.78 572.74 335.26 567.34 345.1C562.06 354.94 554.74 362.26 545.38 367.06C536.14 371.74 525.52 374.08 513.52 374.08L479.68 371.56L459.7 373C458.38 373 457.6 372.28 457.36 370.84C457.12 369.28 457 368.2 457 367.6L472.12 363.64V256.36ZM515.32 365.62C523.72 365.62 531.22 363.64 537.82 359.68C544.54 355.6 549.82 349.42 553.66 341.14C557.62 332.86 559.6 322.36 559.6 309.64C559.6 297.28 557.62 287.08 553.66 279.04C549.82 270.88 544.54 264.76 537.82 260.68C531.22 256.6 523.72 254.56 515.32 254.56C511.48 254.56 506.92 254.8 501.64 255.28C496.48 255.76 491.08 256.66 485.44 257.98L487.24 310L485.44 362.02C490.36 363.1 495.34 364 500.38 364.72C505.42 365.32 510.4 365.62 515.32 365.62ZM604.068 293.08L592.548 290.56C592.548 289.84 592.668 288.76 592.908 287.32C593.268 285.76 594.228 284.98 595.788 284.98C595.788 284.98 596.748 285.04 598.668 285.16C600.588 285.16 604.608 285.28 610.728 285.52C616.368 285.28 620.208 285.16 622.248 285.16C624.288 285.04 625.308 284.98 625.308 284.98C626.868 284.98 627.768 285.76 628.008 287.32C628.248 288.76 628.368 289.78 628.368 290.38L616.848 293.08V364.9L628.368 367.42C628.368 368.14 628.248 369.28 628.008 370.84C627.768 372.28 626.868 373 625.308 373L610.728 371.92L595.788 373C594.228 373 593.268 372.28 592.908 370.84C592.668 369.28 592.548 368.14 592.548 367.42L604.068 364.9V293.08ZM721.175 358.24L722.615 363.46C716.975 367.3 711.215 370.12 705.335 371.92C699.575 373.6 693.815 374.44 688.055 374.44C679.775 374.44 672.335 372.76 665.735 369.4C659.135 366.04 653.915 360.94 650.075 354.1C646.355 347.26 644.495 338.68 644.495 328.36C644.495 318.52 646.535 310.3 650.615 303.7C654.815 297.1 660.335 292.12 667.175 288.76C674.135 285.28 681.815 283.54 690.215 283.54C701.375 283.54 711.335 286.18 720.095 291.46L716.315 311.26C715.835 311.26 714.995 311.26 713.795 311.26C712.595 311.14 711.455 310.9 710.375 310.54C709.295 310.06 708.755 309.34 708.755 308.38V295.42C706.355 294.7 703.295 294.1 699.575 293.62C695.975 293.14 692.615 292.9 689.495 292.9C686.375 292.9 683.195 293.2 679.955 293.8C676.715 294.28 673.835 294.88 671.315 295.6C667.475 298.36 664.355 302.74 661.955 308.74C659.675 314.62 658.535 321.28 658.535 328.72C658.535 341.2 661.475 350.5 667.355 356.62C673.355 362.74 680.735 365.8 689.495 365.8C693.095 365.8 696.875 365.32 700.835 364.36C704.915 363.28 708.275 361.72 710.915 359.68L708.935 335.38L684.455 334.12V326.74H721.175V358.24ZM752.955 293.08L741.435 290.56C741.435 289.84 741.555 288.76 741.795 287.32C742.155 285.76 743.115 284.98 744.675 284.98C744.675 284.98 745.635 285.04 747.555 285.16C749.475 285.16 753.495 285.28 759.615 285.52C765.255 285.28 769.095 285.16 771.135 285.16C773.175 285.04 774.195 284.98 774.195 284.98C775.755 284.98 776.655 285.76 776.895 287.32C777.135 288.76 777.255 289.78 777.255 290.38L765.735 293.08V364.9L777.255 367.42C777.255 368.14 777.135 369.28 776.895 370.84C776.655 372.28 775.755 373 774.195 373L759.615 371.92L744.675 373C743.115 373 742.155 372.28 741.795 370.84C741.555 369.28 741.435 368.14 741.435 367.42L752.955 364.9V293.08ZM821.822 293.62L801.482 293.26L799.682 305.86C799.682 306.7 799.142 307.36 798.062 307.84C797.102 308.2 796.022 308.44 794.822 308.56C793.742 308.56 792.962 308.56 792.482 308.56L790.682 287.32C790.922 286.12 791.522 285.46 792.482 285.34C793.442 285.1 794.642 284.98 796.082 284.98L828.482 285.7L860.342 284.98C861.902 284.98 863.162 285.1 864.122 285.34C865.082 285.46 865.622 286.12 865.742 287.32L863.942 308.56C863.582 308.56 862.802 308.56 861.602 308.56C860.402 308.44 859.262 308.2 858.182 307.84C857.222 307.36 856.742 306.7 856.742 305.86L854.942 293.26C851.582 293.26 848.162 293.32 844.682 293.44C841.322 293.56 837.902 293.62 834.422 293.62V364.36L849.002 367.42C849.002 368.14 848.882 369.28 848.642 370.84C848.402 372.28 847.502 373 845.942 373L828.482 371.92L810.662 373C808.982 373 807.962 372.28 807.602 370.84C807.362 369.28 807.242 368.14 807.242 367.42L821.822 364.36V293.62ZM884.461 364.9L896.521 367.42C896.521 368.26 896.401 369.4 896.161 370.84C895.921 372.28 894.961 373 893.281 373C893.281 373 892.921 373 892.201 373C891.601 373 890.221 372.94 888.061 372.82C885.901 372.7 882.421 372.58 877.621 372.46L865.201 373C863.161 373 862.141 371.2 862.141 367.6L872.581 364.9L903.001 284.98H914.701L945.481 364.72L955.921 367.6C955.921 368.2 955.801 369.28 955.561 370.84C955.321 372.28 954.421 373 952.861 373C952.861 373 951.841 373 949.801 373C947.761 372.88 943.921 372.7 938.281 372.46C931.921 372.7 927.721 372.88 925.681 373C923.641 373 922.621 373 922.621 373C921.061 373 920.101 372.28 919.741 370.84C919.501 369.4 919.381 368.26 919.381 367.42L931.621 364.9L924.421 344.92L890.941 346.72L884.461 364.9ZM907.681 298.84L894.001 337.36H921.541L907.681 298.84ZM1023.69 373L984.088 371.92L969.148 373C967.588 373 966.628 372.28 966.268 370.84C966.028 369.28 965.908 368.14 965.908 367.42L977.428 364.9V293.08L965.908 290.56C965.908 289.84 966.088 288.76 966.448 287.32C966.928 285.76 967.828 284.98 969.148 284.98L984.088 285.52L998.668 284.98C999.988 284.98 1000.83 285.58 1001.19 286.78C1001.55 287.98 1001.73 289.18 1001.73 290.38L990.208 293.08V364.18H1019.19L1022.25 353.92C1022.61 352.6 1023.33 351.76 1024.41 351.4C1025.49 351.04 1027.29 350.86 1029.81 350.86L1028.73 370.84C1028.61 371.8 1028.13 372.46 1027.29 372.82C1026.57 373.06 1025.37 373.12 1023.69 373Z" fill="#051B26"/>
</svg>
